<?xml version="1.0" encoding="iso-8859-1"?>
<!-- Uploaded to: SVG Repo, www.svgrepo.com, Generator: SVG Repo Mixer Tools -->
<svg version="1.1" id="Layer_1" xmlns="http://www.w3.org/2000/svg" xmlns:xlink="http://www.w3.org/1999/xlink" 
	 viewBox="0 0 512 512" xml:space="preserve">
<path d="M503.467,0H8.533C3.84,0,0,3.84,0,8.533v392.533c0,2.389,1.024,4.693,2.731,6.229l110.933,102.4
	c1.621,1.536,3.669,2.304,5.803,2.304h384c4.693,0,8.533-3.84,8.533-8.533V8.533C512,3.84,508.16,0,503.467,0z M93.867,17.067
	h324.267V192l-16.299,12.288l-12.117,9.045H122.283L93.867,192V17.067z M494.933,494.933H122.795L17.067,397.312V17.067H76.8v179.2
	c0,2.645,1.28,5.205,3.413,6.827l34.133,25.6c1.451,1.109,3.243,1.707,5.12,1.707h273.067c1.877,0,3.669-0.597,5.12-1.707
	l3.925-2.901l30.208-22.699c2.133-1.621,3.413-4.181,3.413-6.827v-179.2h59.733V494.933z"/>
<path style="fill:#2B339B;" d="M435.2,17.067v179.2c0,2.645-1.28,5.205-3.413,6.827l-30.208,22.613v0.085l-3.925,2.901
	c-1.451,1.109-3.243,1.707-5.12,1.707H119.467c-1.877,0-3.669-0.597-5.12-1.707l-34.133-25.6c-2.133-1.621-3.413-4.181-3.413-6.827
	v-179.2H17.067v380.245l105.728,97.621h346.539V17.067H435.2z M384,443.733c0,1.707-0.512,3.328-1.451,4.693l-17.067,25.6
	c-1.536,2.389-4.267,3.84-7.083,3.84H153.6c-2.816,0-5.547-1.451-7.083-3.84l-17.067-25.6c-0.939-1.365-1.451-2.987-1.451-4.693
	v-93.867c0-1.707,0.512-3.328,1.451-4.693l17.067-25.6c1.536-2.389,4.267-3.84,7.083-3.84h204.8c2.816,0,5.547,1.451,7.083,3.84
	l17.067,25.6c0.939,1.365,1.451,2.987,1.451,4.693V443.733z"/>
<rect x="469.333" y="17.067" style="fill:#24067F;" width="25.6" height="477.867"/>
<polygon style="fill:#7E939E;" points="418.133,17.067 418.133,192 401.835,204.288 403.883,34.133 93.867,34.133 93.867,17.067 "/>
<polygon style="fill:#AFAFAF;" points="403.883,34.133 401.835,204.288 389.717,213.333 122.283,213.333 93.867,192 93.867,34.133 
	"/>
<path d="M204.8,366.933v59.733c0,4.693-3.84,8.533-8.533,8.533s-8.533-3.84-8.533-8.533v-59.733c0-4.693,3.84-8.533,8.533-8.533
	S204.8,362.24,204.8,366.933z"/>
<path d="M382.549,345.173l-17.067-25.6c-1.536-2.389-4.267-3.84-7.083-3.84H153.6c-2.816,0-5.547,1.451-7.083,3.84l-17.067,25.6
	c-0.939,1.365-1.451,2.987-1.451,4.693v93.867c0,1.707,0.512,3.328,1.451,4.693l17.067,25.6c1.536,2.389,4.267,3.84,7.083,3.84
	h204.8c2.816,0,5.547-1.451,7.083-3.84l17.067-25.6c0.939-1.365,1.451-2.987,1.451-4.693v-93.867
	C384,348.16,383.488,346.539,382.549,345.173z M366.933,441.173L353.792,460.8H158.208l-13.141-19.627v-88.747l13.141-19.627
	h195.584l13.141,19.627V441.173z"/>
<path style="fill:#F9F9F9;" d="M158.208,332.8l-13.141,19.627v88.747l13.141,19.627h183.125v-128H158.208z M204.8,426.667
	c0,4.693-3.84,8.533-8.533,8.533s-8.533-3.84-8.533-8.533v-59.733c0-4.693,3.84-8.533,8.533-8.533s8.533,3.84,8.533,8.533V426.667z"
	/>
<polygon style="fill:#E5E5E5;" points="366.933,352.427 366.933,441.173 353.792,460.8 341.333,460.8 341.333,332.8 353.792,332.8 
	"/>
</svg>